<?xml version="1.0" standalone="no"?><!DOCTYPE svg PUBLIC "-//W3C//DTD SVG 1.1//EN" "http://www.w3.org/Graphics/SVG/1.1/DTD/svg11.dtd"><svg t="1601970448314" class="icon" viewBox="0 0 1024 1024" version="1.1" xmlns="http://www.w3.org/2000/svg" p-id="7709" xmlns:xlink="http://www.w3.org/1999/xlink" width="200" height="200"><defs><style type="text/css"></style></defs><path d="M701.89 815.382H318.882c-62.183 0-112.772-50.594-112.772-112.783V319.607c0-62.186 50.589-112.778 112.772-112.778H701.89c62.184 0 112.773 50.592 112.773 112.778v382.992c0 62.189-50.59 112.783-112.773 112.783zM318.882 256.898c-34.575 0-62.703 28.131-62.703 62.709v382.992c0 34.581 28.128 62.715 62.703 62.715H701.89c34.575 0 62.705-28.134 62.705-62.715V319.607c0-34.578-28.13-62.709-62.705-62.709H318.882z" fill="#4510E6" p-id="7710"></path><path d="M292.784 225.668c-2.41 7.869-4.092 16.058-4.092 24.712v408.736c0 46.836 37.967 84.795 84.801 84.795h408.735c2.458 0 4.773-0.511 7.174-0.709-10.642 34.688-42.542 60.075-80.719 60.075H299.948c-46.833 0-84.801-37.968-84.801-84.803V309.747c0-44.376 34.216-80.393 77.637-84.079" fill="#4510E6" opacity=".1" p-id="7711"></path><path d="M534.996 521.589c-12.439 0-23.074-9.05-24.74-21.539-0.213-1.224-2.804-15.221-11.772-28.439-11.193-16.499-27.205-24.518-48.953-24.518-21.957 0-38.384 8.152-50.22 24.923-9.435 13.37-12.433 27.487-12.678 28.701-2.076 12.859-13.649 21.799-26.641 20.789-13.027-1.021-23.049-12.068-23.049-25.136V231.864c0-13.826 11.208-25.035 25.035-25.035H535.02c13.826 0 25.034 11.208 25.034 25.035V496.37c0 13.2-10.224 24.316-23.396 25.166-0.556 0.035-1.112 0.053-1.662 0.053zM387.013 256.898v158.036c15.505-10.377 35.921-17.911 62.518-17.911 25.631 0 45.37 6.981 60.454 16.778V256.898H387.013z" fill="#50E3C2" p-id="7712"></path></svg>