<?xml version="1.0" standalone="no"?><!DOCTYPE svg PUBLIC "-//W3C//DTD SVG 1.1//EN" "http://www.w3.org/Graphics/SVG/1.1/DTD/svg11.dtd"><svg t="1601970431538" class="icon" viewBox="0 0 1024 1024" version="1.1" xmlns="http://www.w3.org/2000/svg" p-id="6793" xmlns:xlink="http://www.w3.org/1999/xlink" width="200" height="200"><defs><style type="text/css"></style></defs><path d="M0 0h1024v1024H0z" fill="#F55F5F" p-id="6794"></path><path d="M241.2288 552.064v-1.4592A49.28 49.28 0 0 1 192 501.248v-123.648c0-27.264 22.016-49.3312 49.2288-49.3312h102.1184a96.512 96.512 0 0 1-13.0816-48.3072c0-22.8096 7.7056-44.1088 21.6832-60.0064 11.264-12.7744 31.7696-27.9808 65.8176-27.9808 26.5472 0 49.024 9.2928 66.9184 27.6224 9.472 9.8048 16.6656 21.504 22.2976 33.792 5.76-12.288 13.1072-24.0384 22.784-33.8432 17.9712-18.3296 40.5504-27.5712 67.1232-27.5712 57.472 0 87.5008 44.2624 87.5008 88.0128a96.4352 96.4352 0 0 1-13.056 48.2816h120.96c21.9392 0 39.7056 17.792 39.7056 39.7824v133.248a49.28 49.28 0 0 1-49.2288 49.3312v1.408H241.2288z m0 30.0544h541.5424v177.5872c0 19.1744-7.6032 37.5808-21.1456 51.1232a72.1152 72.1152 0 0 1-51.0464 21.1712H313.4208a72.3712 72.3712 0 0 1-72.192-72.32V582.144zM596.8384 233.856c-15.1552 0-27.3408 4.9408-37.376 15.104-19.0976 19.456-26.7008 54.4256-29.2352 78.7968l66.688 0.512c14.336 0 25.6512-4.864 33.8688-14.4128 7.5008-8.704 11.776-21.0432 11.776-33.8432 0-21.2992-11.9552-46.1568-45.7216-46.1568z m-224.768 46.1568c0 17.92 9.6256 48.2816 45.696 48.2816h65.2032c-2.2528-24.6784-9.472-60.1088-28.416-79.5904-9.728-9.984-21.76-14.8736-36.7872-14.8736-14.7968 0-26.3936 4.6592-34.432 13.824-7.296 8.2688-11.264 19.712-11.264 32.3584z" fill="#FFFFFF" p-id="6795"></path></svg>