<?xml version="1.0" standalone="no"?><!DOCTYPE svg PUBLIC "-//W3C//DTD SVG 1.1//EN" "http://www.w3.org/Graphics/SVG/1.1/DTD/svg11.dtd"><svg t="1603034563861" class="icon" viewBox="0 0 1041 1024" version="1.1" xmlns="http://www.w3.org/2000/svg" p-id="3441" xmlns:xlink="http://www.w3.org/1999/xlink" width="203.3203125" height="200"><defs><style type="text/css"></style></defs><path d="M430.6432 601.378133c36.352 0 70.178133-14.455467 94.805333-38.877866a134.434133 134.434133 0 0 0 94.788267 38.877866c36.352 0 70.178133-14.455467 94.805333-38.877866a134.434133 134.434133 0 0 0 94.788267 38.877866c73.7792 0 133.751467-59.016533 133.751467-132.0448a25.6 25.6 0 1 0-51.2 0c0 44.561067-36.864 80.8448-82.551467 80.8448a82.773333 82.773333 0 0 1-72.448-42.069333 25.6 25.6 0 0 0-44.680533 0 82.773333 82.773333 0 0 1-72.465067 42.069333 82.773333 82.773333 0 0 1-72.448-42.069333 25.6 25.6 0 0 0-44.680533 0 82.773333 82.773333 0 0 1-72.465067 42.069333 82.773333 82.773333 0 0 1-72.448-42.069333 25.6 25.6 0 0 0-44.680533 0 82.773333 82.773333 0 0 1-72.448 42.069333c-45.687467 0-82.551467-36.283733-82.551467-80.8448a25.6 25.6 0 0 0-51.2 0c0 73.028267 59.972267 132.0448 133.751467 132.0448 36.352 0 70.178133-14.455467 94.788266-38.877866a134.434133 134.434133 0 0 0 94.788267 38.877866z" fill="#108EE9" p-id="3442"></path><path d="M817.5104 136.533333l68.3008 295.748267H165.102933L233.386667 136.533333h584.123733zM213.026133 85.333333a25.6 25.6 0 0 0-24.9344 19.848534L107.9808 452.096a25.6 25.6 0 0 0 24.9344 31.368533h785.066667a25.6 25.6 0 0 0 24.951466-31.368533L862.8224 105.181867A25.6 25.6 0 0 0 837.888 85.333333H213.026133zM827.665067 841.3696c0-6.212267 2.577067-11.008 5.290666-13.141333 0.068267-0.0512-1.160533 0.3584-3.259733 0.3584h-2.030933v12.782933zM224.768 828.586667c-2.013867 0-3.2768-0.4096-3.242667-0.392534 2.679467 2.0992 5.2736 6.877867 5.2736 13.175467v-12.782933h-2.030933z m2.030933 0V546.133333h-51.2v295.236267c0 21.213867 22.016 38.417067 49.169067 38.417067h604.945067c27.357867 0 49.169067-17.2032 49.169066-38.417067V546.133333h-51.2v282.453334H226.781867z m0 12.782933c0-6.314667-2.594133-11.093333-5.290666-13.175467 0-0.017067 1.245867 0.392533 3.259733 0.392534h2.030933v12.782933z m602.914134-12.782933c2.0992 0 3.328-0.4096 3.259733-0.341334-2.7136 2.116267-5.290667 6.912-5.290667 13.124267v-12.782933h2.030934z" fill="#108EE9" p-id="3443"></path></svg>