<?xml version="1.0" standalone="no"?><!DOCTYPE svg PUBLIC "-//W3C//DTD SVG 1.1//EN" "http://www.w3.org/Graphics/SVG/1.1/DTD/svg11.dtd"><svg t="1603034580171" class="icon" viewBox="0 0 1034 1024" version="1.1" xmlns="http://www.w3.org/2000/svg" p-id="4329" xmlns:xlink="http://www.w3.org/1999/xlink" width="201.953125" height="200"><defs><style type="text/css"></style></defs><path d="M0.271631 1011.666626L1011.939245 0l0.978056 0.978055L1.249687 1012.644681z" fill="#CCCCCC" p-id="4330"></path><path d="M516.085058 87.339334C383.40546 87.339334 275.424223 195.320571 275.424223 328.00017c0 77.058888 36.355988 145.62154 92.86584 189.78221-134.655468 72.218009-183.558223 243.624639-185.929267 251.923289-4.643292 16.696092 5.137259 33.984946 21.932145 38.628237 2.766217 0.790348 5.631226 1.185521 8.397443 1.185522 13.732289 0 26.37785-9.088997 30.230795-23.018873 0.493967-1.975869 54.435189-190.868939 197.092926-230.089937 23.908014 8.002269 49.495517 12.447974 76.169747 12.447974 132.679599 0 240.759629-107.981237 240.759629-240.759629C756.844687 195.320571 648.86345 87.339334 516.085058 87.339334z m0 418.587833c-98.101892 0-177.926997-79.825105-177.926997-177.926997s79.825105-177.926997 177.926997-177.926997 177.926997 79.825105 177.926997 177.926997-79.825105 177.926997-177.926997 177.926997z" fill="#5639FF" p-id="4331"></path><path d="M841.016704 809.420634c-14.423843 0-27.563372-9.879345-31.119936-24.500774-19.462309-79.923898-54.435189-144.337225-103.930705-191.560493-12.843148-12.250387-13.337115-32.601837-1.086728-45.346192 12.250387-12.843148 32.601837-13.337115 45.346192-1.086728 58.48572 55.818297 99.583794 130.802523 122.009906 222.779222 4.248118 17.19006-6.322781 34.577706-23.611634 38.825824-2.469836 0.592761-5.038466 0.889141-7.607095 0.889141z" fill="#E830FB" p-id="4332"></path></svg>